<svg width="15" height="16" viewBox="0 0 15 16" fill="none" xmlns="http://www.w3.org/2000/svg">
<path d="M7.5 -0.000244141L0 1.98192V3.30336L7.5 1.3212L15 3.30336V1.98192L7.5 -0.000244141ZM4.03846 3.96408C2.17673 3.96408 0.360577 4.83161 0.360577 4.83161L0 5.01661V15.1963H6.50827C6.70904 15.5914 7.07365 15.8571 7.5 15.8571C7.92577 15.8571 8.29096 15.5914 8.49173 15.1963H15V5.01727L14.6394 4.83161C14.6394 4.83161 12.8233 3.96408 10.9615 3.96408C9.27808 3.96408 7.8 4.61159 7.5 4.74902C7.2 4.61159 5.72192 3.96408 4.03846 3.96408ZM4.03846 5.28552C5.15423 5.28552 6.34615 5.69847 6.92308 5.92576V13.2763C6.28096 13.0338 5.22635 12.6981 4.03846 12.6981C2.82577 12.6981 1.83865 13.0179 1.15385 13.2763V5.92576C1.59808 5.74142 2.76923 5.28552 4.03846 5.28552ZM10.9615 5.28552C12.2308 5.28552 13.4019 5.74208 13.8462 5.92576V13.2763C13.1608 13.0186 12.1742 12.6981 10.9615 12.6981C9.77365 12.6981 8.71904 13.0338 8.07692 13.2763V5.92576C8.65385 5.69847 9.84577 5.28552 10.9615 5.28552Z" fill="white"/>
</svg>
