<svg width="10" height="22" viewBox="0 0 10 22" fill="none" xmlns="http://www.w3.org/2000/svg">
<path d="M1.50968 15.6008L0 17.0026L4.52692 21.2091L9.05383 17.0026L7.54415 15.6008L4.52692 18.4055L1.50968 15.6008ZM7.54415 6.04776L9.05383 4.64593L4.52692 0.439453L0 4.64593L1.50968 6.04776L4.52692 3.2441L7.54415 6.04776Z" fill="#505050"/>
<path fill-rule="evenodd" clip-rule="evenodd" d="M4.52692 7.85022C5.37581 7.85022 6.18993 8.16356 6.79019 8.72132C7.39044 9.27908 7.72766 10.0356 7.72766 10.8243C7.72766 11.6131 7.39044 12.3696 6.79019 12.9274C6.18993 13.4851 5.37581 13.7985 4.52692 13.7985C3.67803 13.7985 2.8639 13.4851 2.26365 12.9274C1.66339 12.3696 1.32617 11.6131 1.32617 10.8243C1.32617 10.0356 1.66339 9.27908 2.26365 8.72132C2.8639 8.16356 3.67803 7.85022 4.52692 7.85022ZM4.52692 9.83297C4.80988 9.83297 5.08125 9.93742 5.28134 10.1233C5.48142 10.3093 5.59383 10.5614 5.59383 10.8243C5.59383 11.0873 5.48142 11.3394 5.28134 11.5253C5.08125 11.7113 4.80988 11.8157 4.52692 11.8157C4.24395 11.8157 3.97258 11.7113 3.77249 11.5253C3.57241 11.3394 3.46 11.0873 3.46 10.8243C3.46 10.5614 3.57241 10.3093 3.77249 10.1233C3.97258 9.93742 4.24395 9.83297 4.52692 9.83297Z" fill="#505050"/>
</svg>
