<svg width="23" height="10" viewBox="0 0 23 10" fill="none" xmlns="http://www.w3.org/2000/svg">
<path d="M6.1435 1.64627L4.63487 0.00976562L0.10791 4.91696L4.63487 9.82416L6.1435 8.18765L3.12517 4.91696L6.1435 1.64627ZM16.4244 8.18765L17.933 9.82416L22.46 4.91696L17.933 0.00976562L16.4244 1.64627L19.4416 4.91696L16.4244 8.18765Z" fill="#505050"/>
<path fill-rule="evenodd" clip-rule="evenodd" d="M14.4845 4.91696C14.4845 5.83718 14.1473 6.71971 13.547 7.37041C12.9468 8.0211 12.1326 8.38666 11.2838 8.38666C10.4349 8.38666 9.62074 8.0211 9.02048 7.37041C8.42023 6.71971 8.08301 5.83718 8.08301 4.91696C8.08301 3.99674 8.42023 3.11421 9.02048 2.46352C9.62074 1.81282 10.4349 1.44727 11.2838 1.44727C12.1326 1.44727 12.9468 1.81282 13.547 2.46352C14.1473 3.11421 14.4845 3.99674 14.4845 4.91696ZM12.3507 4.91696C12.3507 5.2237 12.2383 5.51788 12.0382 5.73478C11.8381 5.95167 11.5667 6.07353 11.2838 6.07353C11.0008 6.07353 10.7294 5.95167 10.5293 5.73478C10.3292 5.51788 10.2168 5.2237 10.2168 4.91696C10.2168 4.61022 10.3292 4.31604 10.5293 4.09915C10.7294 3.88225 11.0008 3.7604 11.2838 3.7604C11.5667 3.7604 11.8381 3.88225 12.0382 4.09915C12.2383 4.31604 12.3507 4.61022 12.3507 4.91696Z" fill="#505050"/>
</svg>
