<svg width="18" height="16" viewBox="0 0 18 16" fill="none" xmlns="http://www.w3.org/2000/svg">
<path d="M3.2459 4.05267L6.1177 5.15989C7.10581 2.74031 8.54368 0.879223 10.0274 0.0106386C7.33055 -0.133878 4.71696 1.1063 3.03775 3.32193C2.84649 3.57243 2.959 3.94595 3.2459 4.05267ZM6.96433 5.48153L13.6727 8.05675C14.6783 4.45791 14.1964 1.19108 12.4736 0.530011C12.2662 0.452194 12.0484 0.409595 11.8233 0.409595C10.1934 0.408764 8.216 2.46165 6.96433 5.48153ZM14.6684 1.79109C14.8442 2.27281 14.9708 2.81738 15.0377 3.42895C15.1995 4.90732 14.999 6.63352 14.5067 8.37662L17.3925 9.48443C17.6775 9.5956 17.9903 9.38438 17.9973 9.06585C18.0662 6.22561 16.8202 3.50721 14.6684 1.79109ZM14.8512 13.278H9.02888L10.8572 7.9865L9.16586 7.33817L7.11594 13.2789H1.35011C0.604457 13.278 0 13.9154 0 14.701C0 14.9619 0.201476 15.1753 0.450038 15.1753H15.7513C15.9999 15.1753 16.2014 14.9629 16.2014 14.7277C16.2014 13.9154 15.5966 13.278 14.8512 13.278Z" fill="white"/>
</svg>
