<svg width="14" height="16" viewBox="0 0 14 16" fill="none" xmlns="http://www.w3.org/2000/svg">
<path d="M5.6 15.8575V12.6861C5.6 12.2655 5.7475 11.8622 6.01005 11.5648C6.2726 11.2674 6.6287 11.1004 7 11.1004C7.3713 11.1004 7.7274 11.2674 7.98995 11.5648C8.2525 11.8622 8.4 12.2655 8.4 12.6861V15.8575H11.2V7.92889C11.2 7.79208 11.1687 7.65761 11.1092 7.53854C11.0497 7.41947 10.964 7.31987 10.8605 7.24941L7.7 5.10154V3.1717H9.1V1.58597H7.7V0.000244141H6.3V1.58597H4.9V3.1717H6.3V5.10154L3.1395 7.24941C3.03596 7.31987 2.95028 7.41947 2.89079 7.53854C2.8313 7.65761 2.80002 7.79208 2.8 7.92889V15.8575H5.6ZM0.7 15.8575H2.1V9.42107L0.3871 10.3915C0.270741 10.4572 0.172864 10.5583 0.104477 10.6835C0.036091 10.8088 -9.14204e-05 10.9531 1.73468e-07 11.1004V15.0647C1.73468e-07 15.275 0.0737499 15.4766 0.205025 15.6253C0.336301 15.774 0.514349 15.8575 0.7 15.8575ZM13.6129 10.3907L11.9 9.42107V15.8575H13.3C13.4857 15.8575 13.6637 15.774 13.795 15.6253C13.9263 15.4766 14 15.275 14 15.0647V11.1004C14 10.7999 13.8502 10.5255 13.6129 10.3907Z" fill="white"/>
</svg>
