<svg width="36" height="36" viewBox="0 0 36 36" fill="none" xmlns="http://www.w3.org/2000/svg">
<path d="M10.8256 0.583984C5.20317 0.583984 0.583008 5.19782 0.583008 10.8266V25.1747C0.583008 30.7972 5.19684 35.4173 10.8256 35.4173H25.1738C30.7962 35.4173 35.4163 30.8035 35.4163 25.1747V10.8282C35.4163 5.20415 30.8025 0.583984 25.1738 0.583984H10.8256ZM10.8256 3.75065H25.1738C26.1033 3.7494 27.024 3.93157 27.8831 4.28673C28.7421 4.64188 29.5227 5.16304 30.18 5.82035C30.8373 6.47766 31.3584 7.2582 31.7136 8.11725C32.0688 8.97631 32.2509 9.89699 32.2497 10.8266V25.1747C32.2509 26.1043 32.0688 27.025 31.7136 27.8841C31.3584 28.7431 30.8373 29.5236 30.18 30.181C29.5227 30.8383 28.7421 31.3594 27.8831 31.7146C27.024 32.0697 26.1033 32.2519 25.1738 32.2507H10.8272C9.89747 32.2521 8.97661 32.0701 8.11737 31.715C7.25814 31.36 6.47741 30.8388 5.81993 30.1815C5.16246 29.5242 4.64115 28.7436 4.2859 27.8844C3.93065 27.0253 3.74842 26.1044 3.74967 25.1747V10.8282C3.74822 9.89845 3.93023 8.97759 4.28529 8.11835C4.64036 7.25911 5.16148 6.47839 5.81881 5.82091C6.47614 5.16343 7.25675 4.64213 8.11591 4.28688C8.97507 3.93162 9.89588 3.7494 10.8256 3.75065ZM27.3508 7.21498C27.1622 7.21415 26.9753 7.25068 26.8009 7.32247C26.6265 7.39427 26.468 7.4999 26.3346 7.63327C26.2013 7.76664 26.0956 7.92512 26.0238 8.09953C25.952 8.27395 25.9155 8.46087 25.9163 8.64948C25.9163 9.44748 26.5528 10.084 27.3508 10.084C27.5396 10.085 27.7267 10.0487 27.9013 9.97696C28.0759 9.90526 28.2345 9.79966 28.3681 9.66626C28.5016 9.53287 28.6074 9.37433 28.6793 9.1998C28.7512 9.02528 28.7878 8.83823 28.7869 8.64948C28.7878 8.46074 28.7512 8.27369 28.6793 8.09917C28.6074 7.92464 28.5016 7.7661 28.3681 7.63271C28.2345 7.49931 28.0759 7.39371 27.9013 7.32201C27.7267 7.25031 27.5396 7.21394 27.3508 7.21498ZM17.9997 8.50065C12.7747 8.50065 8.49968 12.7757 8.49968 18.0007C8.49968 23.2257 12.7747 27.5007 17.9997 27.5007C23.2247 27.5007 27.4997 23.2257 27.4997 18.0007C27.4997 12.7757 23.2247 8.50065 17.9997 8.50065ZM17.9997 11.6673C21.5194 11.6673 24.333 14.4809 24.333 18.0007C24.333 21.5204 21.5194 24.334 17.9997 24.334C14.4799 24.334 11.6663 21.5204 11.6663 18.0007C11.6663 14.4809 14.4799 11.6673 17.9997 11.6673Z" fill="white"/>
</svg>
