<svg width="16" height="13" viewBox="0 0 16 13" fill="none" xmlns="http://www.w3.org/2000/svg">
<path d="M16 2.33721C16 1.54227 14.6667 0.169189 14.6667 0.169189C14.6667 0.169189 13.3333 1.54227 13.3333 2.33721C13.3333 2.87199 13.6 3.3345 14 3.58021V6.67326H12.6667V5.22791C12.6667 4.43297 12.0667 3.78256 11.3333 3.78256H4.66667C3.93333 3.78256 3.33333 4.43297 3.33333 5.22791V6.67326H2V3.58021C2.4 3.3345 2.66667 2.87199 2.66667 2.33721C2.66667 1.54227 1.33333 0.169189 1.33333 0.169189C1.33333 0.169189 0 1.54227 0 2.33721C0 2.87199 0.266667 3.3345 0.666667 3.58021V12.4547H6.66667V9.56395C6.66667 8.76901 7.26667 8.11861 8 8.11861C8.73333 8.11861 9.33333 8.76901 9.33333 9.56395V12.4547H15.3333V3.58021C15.7333 3.3345 16 2.87199 16 2.33721Z" fill="white"/>
</svg>
