<svg width="16" height="17" viewBox="0 0 16 17" fill="none" xmlns="http://www.w3.org/2000/svg">
<path d="M5.46535 0.000244141C4.41853 0.000244141 3.56436 0.913518 3.56436 2.03275V10.5862L4.19802 10.0991L4.83168 10.5862V2.03275C4.83168 1.66013 5.11683 1.35525 5.46535 1.35525H6.09901V0.000244141H5.46535ZM13.0693 0.000244141C12.0225 0.000244141 11.1683 0.913518 11.1683 2.03275V2.71026H5.46535V4.06526H11.1683V5.42027H5.46535V6.77527H11.1683V8.13028H5.46535V9.48528H11.1683V10.5862L11.802 10.0991L12.4356 10.5862V2.03275C12.4356 1.66013 12.7208 1.35525 13.0693 1.35525H13.703V0.000244141H13.0693ZM4.19802 11.3274L3.80198 11.6662C3.80198 11.6662 3.16578 12.1953 2.31667 12.1953C1.46756 12.1953 0.792079 11.6662 0.792079 11.6662L0 12.7244C0 12.7244 0.977743 13.5503 2.31667 13.5503C3.24246 13.5503 3.83113 13.2224 4.19802 12.9785C4.56681 13.2197 5.1859 13.5503 6.11865 13.5503C7.04444 13.5503 7.63311 13.2224 8 12.9785C8.36879 13.2197 8.98788 13.5503 9.92063 13.5503C10.8464 13.5503 11.4351 13.2224 11.802 12.9785C12.1708 13.2197 12.7899 13.5503 13.7226 13.5503C15.0622 13.5503 16 12.7244 16 12.7244L15.2079 11.6662C15.2079 11.6662 14.5717 12.1953 13.7226 12.1953C12.8735 12.1953 12.198 11.6662 12.198 11.6662L11.802 11.3274L11.4059 11.6662C11.4059 11.6662 10.7697 12.1953 9.92063 12.1953C9.07152 12.1953 8.39604 11.6662 8.39604 11.6662L8 11.3274L7.60396 11.6662C7.60396 11.6662 6.96776 12.1953 6.11865 12.1953C5.26954 12.1953 4.59406 11.6662 4.59406 11.6662L4.19802 11.3274ZM4.19802 14.0374L3.80198 14.3762C3.80198 14.3762 3.16578 14.9053 2.31667 14.9053C1.46756 14.9053 0.792079 14.3762 0.792079 14.3762L0 15.4344C0 15.4344 0.977743 16.2603 2.31667 16.2603C3.24246 16.2603 3.83113 15.9324 4.19802 15.6885C4.56681 15.9297 5.1859 16.2603 6.11865 16.2603C7.04444 16.2603 7.63311 15.9324 8 15.6885C8.36879 15.9297 8.98788 16.2603 9.92063 16.2603C10.8464 16.2603 11.4351 15.9324 11.802 15.6885C12.1708 15.9297 12.7899 16.2603 13.7226 16.2603C15.0622 16.2603 16 15.4344 16 15.4344L15.2079 14.3762C15.2079 14.3762 14.5717 14.9053 13.7226 14.9053C12.8735 14.9053 12.198 14.3762 12.198 14.3762L11.802 14.0374L11.4059 14.3762C11.4059 14.3762 10.7697 14.9053 9.92063 14.9053C9.07152 14.9053 8.39604 14.3762 8.39604 14.3762L8 14.0374L7.60396 14.3762C7.60396 14.3762 6.96776 14.9053 6.11865 14.9053C5.26954 14.9053 4.59406 14.3762 4.59406 14.3762L4.19802 14.0374Z" fill="white"/>
</svg>
