<svg width="43" height="35" viewBox="0 0 43 35" fill="none" xmlns="http://www.w3.org/2000/svg">
<path d="M37.1462 22.4727C36.9414 21.0497 35.8427 19.9404 34.4283 19.6097C28.9307 18.3212 27.5526 15.1553 27.3201 11.6439C26.3451 11.4625 24.6107 11.2663 21.6667 11.2663C18.7227 11.2663 16.9883 11.4625 16.0134 11.6439C15.7809 15.1553 14.4027 18.3212 8.90513 19.6097C7.49073 19.9425 6.39206 21.0497 6.18726 22.4727L5.12699 29.8156C4.75366 32.4012 6.65233 34.7329 9.29339 34.7329H34.0401C36.679 34.7329 38.5798 32.4012 38.2065 29.8156L37.1462 22.4727ZM21.6667 29.3825C18.6907 29.3825 16.2779 26.9932 16.2779 24.0492C16.2779 21.1052 18.6907 18.7159 21.6667 18.7159C24.6427 18.7159 27.0555 21.1052 27.0555 24.0492C27.0555 26.9932 24.6406 29.3825 21.6667 29.3825ZM42.8934 9.13294C42.8422 5.93294 34.6971 0.601743 21.6667 0.599609C8.63419 0.601743 0.489128 5.93294 0.440061 9.13294C0.390994 12.3329 0.484861 16.4972 5.84806 15.8039C12.1222 14.9911 11.7361 12.8001 11.7361 9.66841C11.7361 7.48388 16.839 6.95694 21.6667 6.95694C26.4945 6.95694 31.5953 7.48388 31.5974 9.66841C31.5974 12.8001 31.2113 14.9911 37.4854 15.8039C42.8465 16.4972 42.9425 12.3329 42.8934 9.13294Z" fill="white"/>
</svg>
