<svg width="24" height="24" viewBox="0 0 24 24" fill="none" xmlns="http://www.w3.org/2000/svg">
<path fill-rule="evenodd" clip-rule="evenodd" d="M17.2673 14.3873C16.9745 14.2461 15.5386 13.5657 15.2713 13.4709C15.004 13.3771 14.8094 13.3306 14.6138 13.613C14.4192 13.8935 13.86 14.5285 13.69 14.7161C13.519 14.9047 13.349 14.9275 13.0571 14.7872C12.7652 14.6451 11.8237 14.3484 10.7083 13.3894C9.84051 12.6426 9.2538 11.7205 9.08378 11.4381C8.91376 11.1567 9.06511 11.0041 9.21154 10.8638C9.34323 10.7378 9.50342 10.535 9.64985 10.371C9.79629 10.2062 9.84444 10.0886 9.94174 9.90005C10.04 9.71241 9.99088 9.54847 9.91717 9.40726C9.84444 9.26606 9.26068 7.87962 9.01695 7.31575C8.7801 6.76705 8.53932 6.84191 8.36046 6.83244C8.18946 6.82485 7.99487 6.82296 7.80028 6.82296C7.60569 6.82296 7.28924 6.89309 7.02192 7.17549C6.75362 7.45695 5.99984 8.13833 5.99984 9.52478C5.99984 10.9103 7.04551 12.2493 7.19194 12.4379C7.33837 12.6256 9.25085 15.4705 12.1805 16.6901C12.8783 16.9801 13.4217 17.1535 13.8453 17.2824C14.545 17.4975 15.1819 17.4672 15.6851 17.3943C16.2452 17.3137 17.4128 16.7129 17.6565 16.0552C17.8992 15.3975 17.8992 14.8336 17.8265 14.7161C17.7538 14.5986 17.5592 14.5285 17.2663 14.3873H17.2673ZM11.9387 21.4029H11.9348C10.1947 21.4032 8.48662 20.9522 6.98949 20.097L6.63569 19.8942L2.95816 20.8248L3.93995 17.3677L3.709 17.0133C2.73619 15.5201 2.22137 13.7919 2.22403 12.0285C2.22599 6.86371 6.5836 2.66173 11.9427 2.66173C14.5372 2.66173 16.9764 3.63783 18.8103 5.40808C19.7148 6.2767 20.4317 7.30965 20.9196 8.44717C21.4074 9.5847 21.6565 10.8042 21.6525 12.0352C21.6505 17.2 17.2929 21.4029 11.9387 21.4029ZM20.2058 4.06334C19.123 3.01229 17.8346 2.17892 16.4153 1.61152C14.9961 1.04411 13.4741 0.75395 11.9377 0.757851C5.49666 0.757851 0.252587 5.81369 0.250621 12.0276C0.249638 14.0139 0.787215 15.9528 1.81028 17.6615L0.152344 23.502L6.34774 21.9346C8.06157 22.835 9.98212 23.3067 11.9338 23.3068H11.9387C18.3798 23.3068 23.6239 18.2509 23.6259 12.0361C23.6306 10.5552 23.3308 9.08799 22.7437 7.71949C22.1567 6.35099 21.2941 5.10831 20.2058 4.06334Z" fill="white"/>
</svg>
