<svg width="48" height="32" viewBox="0 0 48 32" fill="none" xmlns="http://www.w3.org/2000/svg">
<path d="M46.9721 5.0208C46.7005 4.05187 46.1714 3.17464 45.441 2.48238C44.6901 1.76883 43.7697 1.25841 42.7667 0.999297C39.013 0.00991141 23.9744 0.00991163 23.9744 0.00991163C17.7049 -0.0614188 11.437 0.25231 5.206 0.949328C4.20301 1.22758 3.28432 1.74941 2.53166 2.46839C1.79212 3.17994 1.25645 4.0574 0.976628 5.0188C0.304431 8.64004 -0.0221678 12.317 0.0012336 16C-0.0227515 19.6797 0.303046 23.3554 0.976628 26.9812C1.25046 27.9386 1.78413 28.812 2.52567 29.5176C3.26721 30.2232 4.19063 30.7328 5.206 31.0027C9.00964 31.9901 23.9744 31.9901 23.9744 31.9901C30.2518 32.0615 36.5277 31.7478 42.7667 31.0506C43.7697 30.7915 44.6901 30.2811 45.441 29.5676C46.1806 28.862 46.7063 27.9845 46.9701 27.0291C47.6598 23.4093 47.9952 19.7309 47.9715 16.046C48.0233 12.3455 47.6884 8.64968 46.9721 5.0188V5.0208ZM19.1933 22.8437V9.15823L31.7056 16.002L19.1933 22.8437Z" fill="white"/>
</svg>
